<svg xmlns="http://www.w3.org/2000/svg" viewBox="0 0 512 512" role="img" aria-label="ShareLy Logo">
  <defs>
    <linearGradient id="bg" x1="74" x2="438" y1="62" y2="450" gradientUnits="userSpaceOnUse">
      <stop offset="0" stop-color="#d5fff3"/>
      <stop offset=".42" stop-color="#7ff0d4"/>
      <stop offset="1" stop-color="#006b5b"/>
    </linearGradient>
    <linearGradient id="card" x1="132" x2="382" y1="128" y2="382" gradientUnits="userSpaceOnUse">
      <stop offset="0" stop-color="#ffffff"/>
      <stop offset="1" stop-color="#e6fbf4"/>
    </linearGradient>
    <filter id="shadow" x="-30%" y="-30%" width="160%" height="160%">
      <feDropShadow dx="0" dy="18" stdDeviation="22" flood-color="#00382f" flood-opacity=".28"/>
    </filter>
  </defs>
  <rect width="512" height="512" rx="116" fill="url(#bg)"/>
  <path d="M90 142c34-46 91-74 157-74 96 0 178 63 204 150 19 64 3 135-42 185-35 39-86 61-145 61-72 0-137-33-175-88-48-69-48-164 1-234Z" fill="#00382f" opacity=".11"/>
  <g filter="url(#shadow)">
    <rect x="116" y="118" width="280" height="280" rx="74" fill="url(#card)"/>
    <rect x="154" y="170" width="132" height="20" rx="10" fill="#006b5b"/>
    <rect x="154" y="214" width="86" height="18" rx="9" fill="#6f7974" opacity=".72"/>
    <rect x="154" y="252" width="116" height="18" rx="9" fill="#6f7974" opacity=".5"/>
    <g fill="#00382f">
      <rect x="288" y="172" width="22" height="22" rx="5"/>
      <rect x="322" y="172" width="22" height="22" rx="5"/>
      <rect x="356" y="172" width="22" height="22" rx="5"/>
      <rect x="288" y="206" width="22" height="22" rx="5"/>
      <rect x="356" y="206" width="22" height="22" rx="5"/>
      <rect x="288" y="240" width="22" height="22" rx="5"/>
      <rect x="322" y="240" width="22" height="22" rx="5"/>
      <rect x="356" y="274" width="22" height="22" rx="5"/>
      <rect x="322" y="308" width="22" height="22" rx="5"/>
      <rect x="288" y="342" width="22" height="22" rx="5"/>
      <rect x="356" y="342" width="22" height="22" rx="5"/>
    </g>
    <path d="M218 321v-26c0-27 21-48 48-48s48 21 48 48v26" fill="none" stroke="#006b5b" stroke-width="24" stroke-linecap="round"/>
    <rect x="194" y="308" width="144" height="88" rx="31" fill="#006b5b"/>
    <circle cx="266" cy="345" r="14" fill="#d5fff3"/>
    <rect x="258" y="356" width="16" height="25" rx="8" fill="#d5fff3"/>
  </g>
</svg>
